<svg width="931" height="248" viewBox="0 0 931 248" fill="none" xmlns="http://www.w3.org/2000/svg">
<path d="M130.68 244.135H0.760001V15.6548H130.68V49.8947H41.72V108.135H124.92V142.375H41.72V209.575H130.68V244.135ZM319.678 70.6947V244.135H287.998L282.557 221.735H280.638C277.011 227.708 272.317 232.615 266.558 236.455C260.798 240.081 254.504 242.748 247.677 244.455C240.851 246.375 233.811 247.335 226.558 247.335C213.757 247.335 202.664 245.095 193.277 240.615C183.891 236.135 176.744 229.308 171.837 220.135C166.931 210.748 164.477 198.695 164.477 183.975V70.6947H204.797V175.975C204.797 188.775 207.357 198.481 212.477 205.095C217.597 211.495 225.704 214.695 236.797 214.695C247.677 214.695 256.211 212.455 262.397 207.975C268.584 203.281 272.958 196.561 275.518 187.815C278.078 179.068 279.358 168.295 279.358 155.495V70.6947H319.678ZM452.35 67.4948C454.91 67.4948 457.897 67.6014 461.31 67.8148C464.723 68.0281 467.603 68.4548 469.95 69.0947L466.43 106.535C464.51 106.108 461.95 105.788 458.75 105.575C455.763 105.148 453.097 104.935 450.75 104.935C444.35 104.935 438.163 106.001 432.19 108.135C426.43 110.055 421.203 113.041 416.51 117.095C412.03 120.935 408.403 125.948 405.63 132.135C403.07 138.321 401.79 145.681 401.79 154.215V244.135H361.47V70.6947H392.51L398.27 100.775H400.19C403.603 94.5881 407.87 89.0414 412.99 84.1348C418.11 79.0148 423.977 74.9614 430.59 71.9748C437.417 68.9881 444.67 67.4948 452.35 67.4948ZM556.005 67.4948C571.578 67.4948 584.912 70.6948 596.005 77.0948C607.312 83.2814 616.058 92.2414 622.245 103.975C628.432 115.495 631.525 129.575 631.525 146.215V166.695H516.965C517.392 182.481 521.765 194.748 530.085 203.495C538.405 212.028 549.925 216.295 564.645 216.295C575.952 216.295 585.978 215.228 594.725 213.095C603.685 210.748 612.858 207.441 622.245 203.175V235.495C613.712 239.548 604.858 242.535 595.685 244.455C586.512 246.375 575.525 247.335 562.725 247.335C545.872 247.335 530.832 244.135 517.605 237.735C504.592 231.121 494.352 221.201 486.885 207.975C479.632 194.748 476.005 178.321 476.005 158.695C476.005 138.855 479.312 122.215 485.925 108.775C492.752 95.1214 502.138 84.8814 514.085 78.0547C526.032 71.0148 540.005 67.4948 556.005 67.4948ZM556.005 97.2548C545.338 97.2548 536.592 100.775 529.765 107.815C523.152 114.641 519.205 124.881 517.925 138.535H592.485C592.485 130.428 591.098 123.281 588.325 117.095C585.765 110.908 581.818 106.108 576.485 102.695C571.152 99.0681 564.325 97.2548 556.005 97.2548ZM702.582 116.455C702.582 122.001 702.369 127.868 701.942 134.055C701.516 140.028 701.089 145.895 700.662 151.655H701.622C703.329 149.095 705.356 146.321 707.702 143.335C710.049 140.135 712.396 137.041 714.742 134.055C717.302 130.855 719.756 127.975 722.102 125.415L773.302 70.6947H819.062L749.622 145.575L823.542 244.135H776.502L722.742 169.895L702.582 186.535V244.135H662.582V0.93475H702.582V116.455ZM910.228 67.4948C932.628 67.4948 949.588 72.4014 961.108 82.2148C972.841 91.8148 978.708 106.961 978.708 127.655V244.135H950.228L942.228 220.135H940.948C936.041 226.321 930.921 231.548 925.588 235.815C920.468 239.868 914.494 242.748 907.668 244.455C901.054 246.375 892.948 247.335 883.348 247.335C873.108 247.335 863.828 245.415 855.508 241.575C847.401 237.735 841.001 231.868 836.307 223.975C831.614 215.868 829.268 205.735 829.268 193.575C829.268 175.655 835.774 162.215 848.788 153.255C862.014 144.081 881.961 139.068 908.628 138.215L938.708 137.255V128.615C938.708 117.521 936.041 109.628 930.708 104.935C925.374 100.241 917.908 97.8948 908.308 97.8948C899.561 97.8948 891.134 99.1748 883.028 101.735C874.921 104.295 867.028 107.281 859.348 110.695L846.548 82.5348C855.081 78.0548 864.788 74.4281 875.668 71.6548C886.761 68.8814 898.281 67.4948 910.228 67.4948ZM917.588 162.855C899.881 163.495 887.614 166.588 880.788 172.135C873.961 177.468 870.548 184.721 870.548 193.895C870.548 202.001 873.001 207.868 877.908 211.495C882.814 215.121 889.108 216.935 896.788 216.935C908.521 216.935 918.441 213.628 926.548 207.015C934.654 200.188 938.708 190.161 938.708 176.935V162.215L917.588 162.855Z" fill="url(#paint0_radial_759_8333)" fill-opacity="0.7"/>
<defs>
<radialGradient id="paint0_radial_759_8333" cx="0" cy="0" r="1" gradientUnits="userSpaceOnUse" gradientTransform="translate(20.6616 9.94305) rotate(11.653) scale(975.597 1382.47)">
<stop stop-color="#FDFF00" stop-opacity="0.04"/>
<stop offset="0.184538" stop-color="#F479B5" stop-opacity="0.21"/>
<stop offset="0.327901" stop-color="#FFFE8F" stop-opacity="0.16"/>
<stop offset="0.426359" stop-color="#FFFE90" stop-opacity="0.31"/>
<stop offset="0.516548" stop-color="white" stop-opacity="0.45"/>
<stop offset="0.601695" stop-color="white" stop-opacity="0.46"/>
<stop offset="0.74351" stop-color="#FE83BC" stop-opacity="0.29"/>
<stop offset="0.842695" stop-color="#FEA7FF" stop-opacity="0.21"/>
<stop offset="0.918408" stop-color="#A2A3FF" stop-opacity="0.19"/>
<stop offset="1" stop-color="#5559F7" stop-opacity="0.24"/>
</radialGradient>
</defs>
</svg>
